<svg xmlns="http://www.w3.org/2000/svg" viewBox="0 0 789.94 789.33"><defs><style>.cls-1{fill:#8bbf52;}.cls-2{fill:#444b54;}.cls-3{fill:#fdfdfd;}</style></defs><g id="Layer_2" data-name="Layer 2"><g id="Layer_1-2" data-name="Layer 1"><path class="cls-1" d="M672.77,115.42c9.32,6.89,17,15.45,24.25,24.34,40.77,49.84,70.08,105.39,84,168.62,8.47,38.5,10.52,77.39,7.79,116.63A380.32,380.32,0,0,1,753,562.76c-16.51,34.83-38,66.4-63.48,95.23-2.51,2.84-5.69,5.07-8.56,7.59-1.8-.21-3-1.38-4.1-2.64-23.54-26.53-53.37-40.73-88.26-45-29.08-3.58-58.09-7.66-87.12-11.62-10.56-1.44-21.15-2.41-31.55-4.92-6.49-1.56-8.74.29-10,6.91-.77,4.09-1.2,8.25-2.23,12.28-1.12,4.41-2.64,8.63-6.63,11.39-9,2-17.89.67-26.73-.75-28.88-4.64-53.14-18.66-74.83-37.62-3.5-3.05-7-6-10.77-9.44-1.56,5-.29,9.4.65,13.89.58,2.81,2.41,5.66.33,8.61-2.59.3-4-1.56-5.21-3.26-2.43-3.39-5.5-3.88-9.24-2.88-12.24,3.27-24.61,6.17-37.28,6.69a111.51,111.51,0,0,0-29.25,5.34c-4.49,1.42-9.22,1.27-13.85,1.62-11,.82-21.73,3.13-32.5,5.24-3.1.61-6.26,1.68-9.37,1.32-18.14-2.06-32.81,7.22-47.78,14.89a118.19,118.19,0,0,0-38.08,31c-1,1.27-2,2.75-3.82,3A337.87,337.87,0,0,1,41.25,569.11,437.92,437.92,0,0,1,3,436.38c-10.85-87.57,8.21-168.65,54.12-243.65,31.61-51.65,71.1-95.94,122.07-129.38C223.94,34,273,15.75,325.61,6.51A407.79,407.79,0,0,1,403.1.05c39,.67,77.07,7.35,114.3,19,4,1.24,8,2.39,11.17,5.21-6.93,9.64-16.1,16.72-26.23,22.61-17.82,10.34-37.35,11.9-57.17,9.72-26.32-2.89-52.46-7.4-78.88-9.2-19.51-1.32-39-.4-58,5.21C282.93,60.1,266.4,76.94,258.18,102a125,125,0,0,0-6,39.86c0,9.48-.44,19,.42,28.46.33,3.67-.67,7.26-1.9,10.75-6.08,17.27-8.91,35.07-9.72,53.35-.47,10.65-.72,21.29-.86,31.94a252,252,0,0,0,3.12,40.78c.3,2,.92,3.92.16,5.91-1,1.75-2.73,1.69-4.37,1.79a41.43,41.43,0,0,1-8.46-.57c-12.32-1.79-21.1,3.85-22.59,16.12-2.71,22.27-2.11,44.25,10.2,64.32,5.3,8.65,12.19,14.88,22.37,17a30.13,30.13,0,0,1,4.79,1.4c5.06,1.93,7.8,5.41,7.67,11-.51,21.28,9,38.68,22.1,54.27a550.21,550.21,0,0,0,44.12,46.23c14.49,13.71,30.59,25.07,49.54,32.15,24.46,9.14,48,6.73,71.18-4.3,10.5-5,19.63-12,28.06-19.81C481.57,520,495.66,508,508.25,494.46s24.15-27.56,31-45a82.92,82.92,0,0,0,5.29-23.8c.76-9,2.87-11.94,11.57-13.81s14.91-7.06,20-14c8.29-11.37,12.15-24.23,13.33-38.17a127.08,127.08,0,0,0,0-25.87c-1.79-15.11-9-20.58-24.32-19.89-2.25.11-4.58,1.42-6.71-.42,2.24-10.88,1.06-22.16,4.42-33,3.54-11.35,2.91-23,1-34.63-1.71-10.34-3.6-20.66-5-31.06a35.6,35.6,0,0,1-.46-5.46c0-4.08,1.91-6.48,6.07-7.23,5.25-.94,10.58-1.21,15.85-2,24-3.58,44.81-13.7,61.56-31.37,12.81-13.52,21.1-29.82,27.25-47.27C669.86,119.31,670,116.55,672.77,115.42Z"/><path class="cls-2" d="M672.77,115.42c-5,13.74-10.19,27.44-18.44,39.7-18.05,26.82-43.22,42.12-75.14,46.53-4.6.64-9.2,1.47-13.82,1.74s-6.24,2.71-5.66,6.86c1.36,9.69,2.67,19.39,4.41,29,2.8,15.53,4.18,30.92-1.27,46.22-2.33,6.54-.48,13.58-2,20.29a38.07,38.07,0,0,1-2.2,7.6c-6.92,6.57-9,14.57-8,23.95a6.74,6.74,0,0,1-6.12,7.33c-4.2.47-8.26-1.94-8.92-6.25-2.31-15.14-8.65-29-13.21-43.44A106.25,106.25,0,0,1,518,268.45c-.64-11.81-.77-23.62-.82-35.43a101.81,101.81,0,0,1,.69-12.46c.64-5.45-1.79-7.52-6.68-5.49-27.75,11.56-57.24,15.22-86.67,18.62-30.05,3.48-59.81-.22-89.28-6.47-13.21-2.8-26.2-6.43-39.1-10.41-1.12-.35-2.24-.68-3.38-.92-4.74-1-6.49.24-6.08,4.92.71,8.16.19,16.32.43,24.47.62,20.4-3.53,40.1-9,59.56-2.64,9.46-6.16,18.67-8.94,28.09a36.16,36.16,0,0,1-2.1,5.62c-2.29,4.72-6,6.91-10.33,6s-6.25-3.83-6.5-9.36a37.93,37.93,0,0,1,0-5c.51-6.17-.39-11.67-6.47-15a2.53,2.53,0,0,1-1-1.67c-3.88-20.86-4.73-41.93-4.08-63.07.74-24.45,2.23-48.8,11.33-72,1.17-3,1.2-6.36,1-9.77-1.11-21.29-1.37-42.55,4.51-63.36,8.82-31.2,29.4-49.9,60.9-56.41,21.16-4.38,42.51-3.68,64-1.81,26.29,2.28,52.16,8.14,78.63,8.63,24.67.45,45.46-8.23,62.66-25.81,2.06-2.11,3.77-4.72,6.77-5.75a131.75,131.75,0,0,1,37.31,15.36c1.54,10.52,3.56,21.09-4,30.45-1.22,1.51-2.93,3.2-1.74,5.33s3.41,1.89,5.39,1.84A75.38,75.38,0,0,0,594,70.48c5.12-2.27,10-5.42,15.78-5.9a150,150,0,0,1,18,12c-1.92,17.83-9.49,33.31-20.21,47.34-7,9.21-11.81,13.1-17.64,15.57,5.89,1.66,11.32.46,16.75-2.21,8.36-4.12,17.26-6.91,26.07-9.92,11.06-3.78,21.71-8.39,30.44-16.51,1-.9,2-1.79,3.53-1.4Q669.74,112.44,672.77,115.42Z"/><path class="cls-2" d="M113.37,669.57c13.17-18.05,30.68-30.63,50.68-40,2.25-1.06,4.57-2,6.81-3.07,9.48-4.6,19-7.76,30-7.18,10.76.57,21.17-3.55,31.83-5.13,9.66-1.44,19.85-.28,29-3.85,14.44-5.64,29.91-3.1,44.51-6.81,6.1-1.56,12.36-2.55,18.41-4.27,4.88-1.4,8.71-1.36,11.26,3.84.67,1.37,2.37,2.24,3.59,3.34,1.83,1.26,1.28,3.25,1.55,5,3.32,21.87,12.42,40.79,30.42,54.12,15.72,11.64,41.07,10.16,56.58-1.74,8.17-6.26,13.59-14.42,18-23.5,1.43-3,2.08-6.36,4.6-8.75,6.47-6.58,6.58-15.36,8-23.61,1.31-7.53,4.05-10.15,11.06-8.16,16.9,4.77,34.49,4.56,51.59,7.71,29,5.35,58.73,6.13,87.53,12.89,29.17,6.84,53,22.35,72.19,45.23A363.43,363.43,0,0,1,554.75,756.4c-40.16,17.46-82.24,27.3-125.75,31.22C313.74,798,214.6,760.91,128.61,685.35A122.91,122.91,0,0,1,113.37,669.57Z"/><path class="cls-1" d="M666.72,109.44c-9.5,9.61-21.35,15.08-33.93,19.26-9.78,3.24-19.53,6.59-28.81,11.12-5.08,2.48-10.17,2.17-15.94.28,13.12-8.23,22.14-19.61,28.58-32.95,3.64-7.54,8.43-14.77,8.35-23.74,0-2.43,1.43-4.74,2.81-6.84C642.23,85.79,655.54,96.36,666.72,109.44Z"/><path class="cls-1" d="M609.82,64.58c-14.42,7.23-28.88,14.3-45.64,14-2.44,0-4.76-.15-6.1-2.46s.28-4.23,1.79-5.7c4.77-4.68,6.11-10.42,5.9-16.85-.15-4.65.06-9.31.11-14C581.65,46,596.71,53.55,609.82,64.58Z"/><path class="cls-3" d="M242.83,313.55c6.86,2.25,9.6,7.17,9.26,14.16-.14,2.83-.05,5.67-.14,8.5-.09,3.23.42,6,4.22,6.87s6.9.07,9-3.46a10.58,10.58,0,0,0,.8-1.82c10.12-29.26,19.7-58.66,20-90.08.08-8.48-.23-17-.72-25.46s1.18-10,9.32-7.52A455.78,455.78,0,0,0,352.05,229a285.86,285.86,0,0,0,102.74-.84c19.59-3.72,39.26-6.88,57.68-15.13,4.64-2.07,7.55.28,7,5.48-1.77,18.32-.69,36.62.2,54.91.62,12.77,4.88,24.69,9.47,36.49,3.5,9,6.49,18.12,7.51,27.79.5,4.81,4,5.65,7.95,5.55s4.7-3,4.73-6.25-.43-6.61-.09-10c.64-6.35,3.46-11,9.39-13.61,3.81-.23,7.63-.76,11.43-.65,11.69.35,17.85,5,19.75,16.47,3.64,22,2.3,43.53-8.74,63.5-6,10.85-14.08,19.3-27.4,21-5,.64-7.39,4.66-7.57,9.3-1.21,30.94-18.68,53.41-38.87,74.25C493.5,511.47,479,525,463.91,537.9c-20.78,17.77-44.61,27.87-72.37,25.48-21.13-1.82-39.47-11.26-56.33-23.7-19.56-14.45-35.22-33-52-50.27-11.62-12-21.31-25.07-27.18-40.83-2.76-7.39-4.79-14.8-4.37-22.83.41-7.84-1.81-10.7-9.36-12.2-13.2-2.64-21.62-10.76-27.6-22.38-7-13.71-9.68-28.21-9.13-43.43.21-5.81-.25-11.63,1-17.42,2.79-13.36,11-19.41,24.41-17.43A73.38,73.38,0,0,0,242.83,313.55Z"/><path class="cls-3" d="M450.57,631.52c-6.29,19.68-17,35.69-38.16,41.13s-39.65.85-53.53-17c-11.22-14.48-19-30.42-19.41-49.2.4-4.27-1.57-8.08-2.33-12.13-.78-4.21-1.39-8.42,1.08-13C369.55,612.3,405.13,633.08,450.57,631.52Z"/></g></g></svg>